<svg width="12" height="12" viewBox="0 0 12 12" fill="none" xmlns="http://www.w3.org/2000/svg">
<path d="M3.89999 8.91801L5.99999 6.81801L8.09999 8.91801L8.91666 8.10134L6.81666 6.00134L8.91666 3.90134L8.09999 3.08467L5.99999 5.18467L3.89999 3.08467L3.08332 3.90134L5.18332 6.00134L3.08332 8.10134L3.89999 8.91801ZM5.99999 11.8347C5.19305 11.8347 4.43471 11.6815 3.72499 11.3753C3.01527 11.069 2.39791 10.6534 1.87291 10.1284C1.34791 9.60342 0.932281 8.98606 0.626031 8.27634C0.319781 7.56662 0.166656 6.80828 0.166656 6.00134C0.166656 5.1944 0.319781 4.43606 0.626031 3.72634C0.932281 3.01662 1.34791 2.39926 1.87291 1.87426C2.39791 1.34926 3.01527 0.933632 3.72499 0.627382C4.43471 0.321132 5.19305 0.168007 5.99999 0.168007C6.80693 0.168007 7.56527 0.321132 8.27499 0.627382C8.98471 0.933632 9.60207 1.34926 10.1271 1.87426C10.6521 2.39926 11.0677 3.01662 11.3739 3.72634C11.6802 4.43606 11.8333 5.1944 11.8333 6.00134C11.8333 6.80828 11.6802 7.56662 11.3739 8.27634C11.0677 8.98606 10.6521 9.60342 10.1271 10.1284C9.60207 10.6534 8.98471 11.069 8.27499 11.3753C7.56527 11.6815 6.80693 11.8347 5.99999 11.8347ZM5.99999 10.668C7.30277 10.668 8.40624 10.2159 9.31041 9.31176C10.2146 8.40759 10.6667 7.30412 10.6667 6.00134C10.6667 4.69856 10.2146 3.59509 9.31041 2.69092C8.40624 1.78676 7.30277 1.33467 5.99999 1.33467C4.69721 1.33467 3.59374 1.78676 2.68957 2.69092C1.78541 3.59509 1.33332 4.69856 1.33332 6.00134C1.33332 7.30412 1.78541 8.40759 2.68957 9.31176C3.59374 10.2159 4.69721 10.668 5.99999 10.668Z" fill="#2D60AC"/>
</svg>
