<svg width="41" height="40" viewBox="0 0 41 40" fill="none" xmlns="http://www.w3.org/2000/svg">
<rect x="0.855469" y="0.000671387" width="40" height="40" rx="20" fill="#EBEBEB"/>
<path d="M33.3555 26.1507V29.9007C33.3569 30.2488 33.2856 30.5934 33.1461 30.9124C33.0067 31.2313 32.8021 31.5177 32.5456 31.753C32.2891 31.9883 31.9862 32.1675 31.6564 32.2791C31.3267 32.3906 30.9772 32.432 30.6305 32.4007C26.784 31.9827 23.0893 30.6684 19.843 28.5632C16.8228 26.644 14.2622 24.0834 12.343 21.0632C10.2305 17.8022 8.91581 14.0894 8.50551 10.2257C8.47427 9.88 8.51535 9.53162 8.62613 9.2027C8.73691 8.87378 8.91497 8.57153 9.14896 8.3152C9.38296 8.05886 9.66776 7.85406 9.98525 7.71382C10.3027 7.57359 10.6459 7.501 10.993 7.50067H14.743C15.3496 7.4947 15.9377 7.70952 16.3977 8.10509C16.8577 8.50065 17.1581 9.04998 17.243 9.65067C17.4013 10.8508 17.6948 12.0291 18.118 13.1632C18.2862 13.6106 18.3226 14.0968 18.2229 14.5643C18.1232 15.0317 17.8916 15.4608 17.5555 15.8007L15.968 17.3882C17.7475 20.5176 20.3386 23.1087 23.468 24.8882L25.0555 23.3007C25.3954 22.9646 25.8244 22.733 26.2919 22.6333C26.7594 22.5336 27.2456 22.57 27.693 22.7382C28.8271 23.1614 30.0054 23.4549 31.2055 23.6132C31.8127 23.6988 32.3673 24.0047 32.7637 24.4725C33.1601 24.9404 33.3707 25.5376 33.3555 26.1507Z" fill="#D1A969"/>
</svg>
