<svg width="27" height="26" viewBox="0 0 27 26" fill="none" xmlns="http://www.w3.org/2000/svg">
<g clip-path="url(#clip0_273_48)">
<path d="M16.8041 5.41671C17.8623 5.62315 18.8347 6.14065 19.597 6.90297C20.3594 7.66529 20.8769 8.63774 21.0833 9.69587M16.8041 1.08337C19.0025 1.3276 21.0525 2.31206 22.6176 3.87513C24.1826 5.4382 25.1696 7.48697 25.4166 9.68504M24.3333 18.33V21.58C24.3345 21.8817 24.2727 22.1804 24.1519 22.4568C24.031 22.7333 23.8537 22.9814 23.6314 23.1854C23.4091 23.3894 23.1466 23.5446 22.8608 23.6413C22.575 23.738 22.2721 23.7739 21.9716 23.7467C18.638 23.3845 15.4359 22.2454 12.6225 20.4209C10.0049 18.7576 7.78575 16.5384 6.12247 13.9209C4.29161 11.0947 3.15223 7.87695 2.79663 4.52837C2.76956 4.2288 2.80517 3.92686 2.90118 3.6418C2.99719 3.35674 3.1515 3.09479 3.3543 2.87263C3.55709 2.65047 3.80392 2.47298 4.07907 2.35144C4.35423 2.2299 4.65167 2.16699 4.95247 2.16671H8.20247C8.72822 2.16153 9.23791 2.34771 9.63654 2.69053C10.0352 3.03336 10.2956 3.50944 10.3691 4.03004C10.5063 5.07011 10.7607 6.09133 11.1275 7.07421C11.2732 7.46196 11.3048 7.88336 11.2184 8.28849C11.132 8.69362 10.9312 9.06549 10.64 9.36004L9.26413 10.7359C10.8063 13.448 13.052 15.6937 15.7641 17.2359L17.14 15.86C17.4345 15.5688 17.8064 15.368 18.2115 15.2816C18.6166 15.1952 19.038 15.2268 19.4258 15.3725C20.4087 15.7393 21.4299 15.9937 22.47 16.1309C22.9962 16.2051 23.4768 16.4702 23.8204 16.8757C24.1639 17.2811 24.3465 17.7987 24.3333 18.33Z" stroke="white" stroke-width="2" stroke-linecap="round" stroke-linejoin="round"/>
</g>
<defs>
<clipPath id="clip0_273_48">
<rect width="26" height="26" fill="white" transform="translate(0.5)"/>
</clipPath>
</defs>
</svg>
