<svg width="18" height="18" viewBox="0 0 18 18" fill="none" xmlns="http://www.w3.org/2000/svg">
<path d="M7.5 3.78751V2.25001C7.50048 1.95881 7.33235 1.69365 7.06875 1.56989C6.80516 1.44613 6.49375 1.48614 6.27 1.67251L1.77 5.42251C1.59805 5.56499 1.49854 5.77669 1.49854 6.00001C1.49854 6.22332 1.59805 6.43502 1.77 6.57751L6.27 10.3275C6.40494 10.4393 6.57476 10.5003 6.75 10.5C6.85865 10.5006 6.96613 10.4776 7.065 10.4325C7.33084 10.3095 7.50073 10.0429 7.5 9.75001V8.28751C10.4968 8.58079 13.0599 10.5665 14.0925 13.395L15.045 16.005C15.1524 16.302 15.4342 16.4999 15.75 16.5C15.7921 16.5078 15.8354 16.5078 15.8775 16.5C16.2413 16.4373 16.5054 16.1191 16.5 15.75V13.5C16.4955 8.40944 12.5755 4.17909 7.5 3.78751Z" fill="#093B86"/>
</svg>
