<svg width="17" height="17" viewBox="0 0 17 17" fill="none" xmlns="http://www.w3.org/2000/svg">
<g clip-path="url(#clip0_174_114)">
<path d="M7.96143 2.96353H3.29476C2.94114 2.96353 2.602 3.10401 2.35195 3.35405C2.1019 3.6041 1.96143 3.94324 1.96143 4.29686V13.6302C1.96143 13.9838 2.1019 14.323 2.35195 14.573C2.602 14.8231 2.94114 14.9635 3.29476 14.9635H12.6281C12.9817 14.9635 13.3209 14.8231 13.5709 14.573C13.8209 14.323 13.9614 13.9838 13.9614 13.6302V8.96353M12.9614 1.96353C13.2266 1.69831 13.5864 1.54932 13.9614 1.54932C14.3365 1.54932 14.6962 1.69831 14.9614 1.96353C15.2266 2.22875 15.3756 2.58846 15.3756 2.96353C15.3756 3.3386 15.2266 3.69831 14.9614 3.96353L8.62809 10.2969L5.96143 10.9635L6.62809 8.29686L12.9614 1.96353Z" stroke="#093B86" stroke-width="1.5" stroke-linecap="round" stroke-linejoin="round"/>
</g>
<defs>
<clipPath id="clip0_174_114">
<rect width="16" height="16" fill="white" transform="translate(0.62793 0.296875)"/>
</clipPath>
</defs>
</svg>
