<svg width="33" height="33" viewBox="0 0 33 33" fill="none" xmlns="http://www.w3.org/2000/svg">
<path d="M19.2658 16.3152L15.0658 13.9152V18.7152L19.2658 16.3152Z" fill="white"/>
<path fill-rule="evenodd" clip-rule="evenodd" d="M0.665771 16.3152C0.665771 7.47863 7.82922 0.315186 16.6658 0.315186C25.5023 0.315186 32.6658 7.47863 32.6658 16.3152C32.6658 25.1517 25.5023 32.3152 16.6658 32.3152C7.82922 32.3152 0.665771 25.1517 0.665771 16.3152ZM22.8658 11.0152C23.5658 11.2152 24.0658 11.7152 24.2658 12.4152C24.6658 13.7152 24.6658 16.3152 24.6658 16.3152C24.6658 16.3152 24.6658 18.9152 24.3658 20.2152C24.1658 20.9152 23.6658 21.4152 22.9658 21.6152C21.6658 21.9152 16.6658 21.9152 16.6658 21.9152C16.6658 21.9152 11.5658 21.9152 10.3658 21.6152C9.66577 21.4152 9.16577 20.9152 8.96577 20.2152C8.66577 18.9152 8.66577 16.3152 8.66577 16.3152C8.66577 16.3152 8.66577 13.7152 8.86577 12.4152C9.06577 11.7152 9.56578 11.2152 10.2658 11.0152C11.5658 10.7152 16.5658 10.7152 16.5658 10.7152C16.5658 10.7152 21.6658 10.7152 22.8658 11.0152Z" fill="white"/>
</svg>
