<svg width="33" height="33" viewBox="0 0 33 33" fill="none" xmlns="http://www.w3.org/2000/svg">
<path fill-rule="evenodd" clip-rule="evenodd" d="M0.665771 16.3152C0.665771 7.47863 7.82922 0.315186 16.6658 0.315186C25.5023 0.315186 32.6658 7.47863 32.6658 16.3152C32.6658 25.1517 25.5023 32.3152 16.6658 32.3152C7.82922 32.3152 0.665771 25.1517 0.665771 16.3152ZM16.6658 8.31519C21.0658 8.31519 24.6658 11.9152 24.6658 16.3152C24.6658 20.3152 21.7658 23.7152 17.7658 24.3152V18.6152H19.6658L20.0658 16.3152H17.8658V14.8152C17.8658 14.2152 18.1658 13.6152 19.1658 13.6152H20.1658V11.6152C20.1658 11.6152 19.2658 11.4152 18.3658 11.4152C16.5658 11.4152 15.3658 12.5152 15.3658 14.5152V16.3152H13.3658V18.6152H15.3658V24.2152C11.5658 23.6152 8.66577 20.3152 8.66577 16.3152C8.66577 11.9152 12.2658 8.31519 16.6658 8.31519Z" fill="white"/>
</svg>
