<svg width="41" height="41" viewBox="0 0 41 41" fill="none" xmlns="http://www.w3.org/2000/svg">
<g clip-path="url(#clip0_190_623)">
<path d="M25.2491 9.29508C26.877 9.61269 28.3731 10.4088 29.5459 11.5816C30.7187 12.7544 31.5148 14.2505 31.8324 15.8784M25.2491 2.62842C28.6312 3.00414 31.7851 4.51871 34.1928 6.92343C36.6006 9.32815 38.1191 12.4801 38.4991 15.8618M36.8324 29.1618V34.1618C36.8343 34.6259 36.7392 35.0854 36.5533 35.5107C36.3673 35.936 36.0946 36.3177 35.7526 36.6315C35.4105 36.9453 35.0067 37.1842 34.567 37.3329C34.1273 37.4816 33.6614 37.5369 33.1991 37.4951C28.0705 36.9378 23.1441 35.1853 18.8158 32.3784C14.7888 29.8195 11.3747 26.4054 8.81577 22.3784C5.99907 18.0304 4.24618 13.0801 3.69911 7.92842C3.65746 7.46753 3.71223 7.00302 3.85994 6.56446C4.00765 6.1259 4.24506 5.7229 4.55705 5.38112C4.86904 5.03934 5.24878 4.76627 5.67209 4.57929C6.0954 4.39231 6.55301 4.29552 7.01577 4.29508H12.0158C12.8246 4.28712 13.6088 4.57355 14.222 5.10097C14.8353 5.6284 15.2359 6.36083 15.3491 7.16175C15.5601 8.76186 15.9515 10.333 16.5158 11.8451C16.74 12.4416 16.7885 13.0899 16.6556 13.7132C16.5227 14.3365 16.2139 14.9086 15.7658 15.3618L13.6491 17.4784C16.0217 21.651 19.4765 25.1058 23.6491 27.4784L25.7658 25.3618C26.2189 24.9136 26.791 24.6048 27.4143 24.4719C28.0376 24.339 28.6859 24.3875 29.2824 24.6118C30.7946 25.176 32.3657 25.5674 33.9658 25.7784C34.7754 25.8926 35.5148 26.3004 36.0433 26.9242C36.5719 27.5481 36.8527 28.3444 36.8324 29.1618Z" stroke="#FEC465" stroke-width="4" stroke-linecap="round" stroke-linejoin="round"/>
</g>
<defs>
<clipPath id="clip0_190_623">
<rect width="40" height="40" fill="white" transform="translate(0.165771 0.96167)"/>
</clipPath>
</defs>
</svg>
