<svg width="33" height="33" viewBox="0 0 33 33" fill="none" xmlns="http://www.w3.org/2000/svg">
<path d="M16.6658 19.1152C15.1658 19.1152 13.8658 17.9152 13.8658 16.3152C13.8658 14.8152 15.0658 13.5152 16.6658 13.5152C18.1658 13.5152 19.4658 14.7152 19.4658 16.3152C19.4658 17.8152 18.1658 19.1152 16.6658 19.1152Z" fill="white"/>
<path fill-rule="evenodd" clip-rule="evenodd" d="M20.0658 9.51518H13.2658C12.4658 9.61518 12.0658 9.71518 11.7658 9.81518C11.3658 9.91518 11.0658 10.1152 10.7658 10.4152C10.5284 10.6526 10.4162 10.89 10.2807 11.1769C10.2449 11.2525 10.2075 11.3318 10.1658 11.4152C10.1503 11.4616 10.1324 11.5104 10.1133 11.5627C10.0087 11.8485 9.86577 12.2389 9.86577 12.9152V19.7152C9.96577 20.5152 10.0658 20.9152 10.1658 21.2152C10.2658 21.6152 10.4658 21.9152 10.7658 22.2152C11.0032 22.4526 11.2405 22.5647 11.5275 22.7003C11.6032 22.7361 11.6823 22.7734 11.7658 22.8152C11.8122 22.8307 11.861 22.8485 11.9133 22.8677C12.1991 22.9723 12.5895 23.1152 13.2658 23.1152H20.0658C20.8658 23.0152 21.2658 22.9152 21.5658 22.8152C21.9658 22.7152 22.2658 22.5152 22.5658 22.2152C22.8032 21.9778 22.9153 21.7404 23.0509 21.4535C23.0866 21.3778 23.124 21.2986 23.1658 21.2152C23.1812 21.1688 23.1991 21.12 23.2183 21.0677C23.3229 20.7818 23.4658 20.3914 23.4658 19.7152V12.9152C23.3658 12.1152 23.2658 11.7152 23.1658 11.4152C23.0658 11.0152 22.8658 10.7152 22.5658 10.4152C22.3284 10.1778 22.091 10.0656 21.8041 9.93007C21.7285 9.89437 21.6491 9.85685 21.5658 9.81518C21.5194 9.79971 21.4706 9.78185 21.4183 9.7627C21.1324 9.65809 20.742 9.51518 20.0658 9.51518ZM16.6658 12.0152C14.2658 12.0152 12.3658 13.9152 12.3658 16.3152C12.3658 18.7152 14.2658 20.6152 16.6658 20.6152C19.0658 20.6152 20.9658 18.7152 20.9658 16.3152C20.9658 13.9152 19.0658 12.0152 16.6658 12.0152ZM22.0658 11.9152C22.0658 12.4675 21.6181 12.9152 21.0658 12.9152C20.5135 12.9152 20.0658 12.4675 20.0658 11.9152C20.0658 11.3629 20.5135 10.9152 21.0658 10.9152C21.6181 10.9152 22.0658 11.3629 22.0658 11.9152Z" fill="white"/>
<path fill-rule="evenodd" clip-rule="evenodd" d="M0.665771 16.3152C0.665771 7.47863 7.82922 0.315186 16.6658 0.315186C25.5023 0.315186 32.6658 7.47863 32.6658 16.3152C32.6658 25.1517 25.5023 32.3152 16.6658 32.3152C7.82922 32.3152 0.665771 25.1517 0.665771 16.3152ZM13.2658 8.01518H20.0658C20.9658 8.11518 21.5658 8.21518 22.0658 8.41518C22.6658 8.71518 23.0658 8.91518 23.5658 9.41518C24.0658 9.91518 24.3658 10.4152 24.5658 10.9152C24.7658 11.4152 24.9658 12.0152 24.9658 12.9152V19.7152C24.8658 20.6152 24.7658 21.2152 24.5658 21.7152C24.2658 22.3152 24.0658 22.7152 23.5658 23.2152C23.0658 23.7152 22.5658 24.0152 22.0658 24.2152C21.5658 24.4152 20.9658 24.6152 20.0658 24.6152H13.2658C12.3658 24.5152 11.7658 24.4152 11.2658 24.2152C10.6658 23.9152 10.2658 23.7152 9.76577 23.2152C9.26577 22.7152 8.96577 22.2152 8.76577 21.7152C8.56577 21.2152 8.36577 20.6152 8.36577 19.7152V12.9152C8.46577 12.0152 8.56577 11.4152 8.76577 10.9152C9.06577 10.3152 9.26577 9.91518 9.76577 9.41518C10.2658 8.91518 10.7658 8.61518 11.2658 8.41518C11.7658 8.21518 12.3658 8.01518 13.2658 8.01518Z" fill="white"/>
</svg>
