<svg width="33" height="33" viewBox="0 0 33 33" fill="none" xmlns="http://www.w3.org/2000/svg">
<path fill-rule="evenodd" clip-rule="evenodd" d="M16.6658 0.315186C7.82922 0.315186 0.665771 7.47863 0.665771 16.3152C0.665771 25.1517 7.82922 32.3152 16.6658 32.3152C25.5023 32.3152 32.6658 25.1517 32.6658 16.3152C32.6658 7.47863 25.5023 0.315186 16.6658 0.315186ZM19.784 8.31519C19.784 8.55294 19.8062 8.78709 19.8471 9.01369C20.0439 10.0612 20.6638 10.9602 21.525 11.5211C22.1263 11.9149 22.8389 12.1415 23.6072 12.1415L23.6071 12.7544V14.8905C22.1818 14.8905 20.8604 14.4336 19.7839 13.6609V19.2518C19.7839 22.0417 17.5124 24.3152 14.7249 24.3152C13.6485 24.3152 12.6462 23.9733 11.8259 23.3975C10.5194 22.4799 9.66577 20.9643 9.66577 19.2518C9.66577 16.4582 11.9337 14.1884 14.7212 14.1921C14.955 14.1921 15.1814 14.2107 15.4041 14.2404V14.8905L15.396 14.8944L15.4041 14.8942V17.0489C15.1888 16.982 14.9587 16.9411 14.7212 16.9411C13.448 16.9411 12.4124 17.9776 12.4124 19.2518C12.4124 20.1397 12.9172 20.9086 13.6522 21.2987C13.659 21.3081 13.666 21.3174 13.673 21.3267L13.6853 21.343C13.6768 21.3267 13.6671 21.3106 13.6559 21.295C13.9788 21.4659 14.3426 21.5624 14.7286 21.5624C15.972 21.5624 16.9891 20.5706 17.0336 19.3372L17.0373 8.31519H19.784Z" fill="white"/>
</svg>
