<svg width="45" height="45" viewBox="0 0 45 45" fill="none" xmlns="http://www.w3.org/2000/svg">
<circle cx="22.5" cy="22.5" r="22.5" fill="#EA9100"/>
<path d="M21.6666 15.0533H15.8333C15.3913 15.0533 14.9673 15.2289 14.6548 15.5414C14.3422 15.854 14.1666 16.2779 14.1666 16.72V28.3866C14.1666 28.8286 14.3422 29.2526 14.6548 29.5651C14.9673 29.8777 15.3913 30.0533 15.8333 30.0533H27.5C27.942 30.0533 28.3659 29.8777 28.6785 29.5651C28.991 29.2526 29.1666 28.8286 29.1666 28.3866V22.5533M27.9166 13.8033C28.2481 13.4718 28.6978 13.2855 29.1666 13.2855C29.6355 13.2855 30.0851 13.4718 30.4166 13.8033C30.7481 14.1348 30.9344 14.5844 30.9344 15.0533C30.9344 15.5221 30.7481 15.9718 30.4166 16.3033L22.5 24.22L19.1666 25.0533L20 21.72L27.9166 13.8033Z" stroke="white" stroke-width="1.6" stroke-linecap="round" stroke-linejoin="round"/>
</svg>
